# xmcd
#
# Track frame offsets: 
#        150
#        10056
#        29355
#        52184
#        72002
#        97870
#        119968
#        131232
#        142525
#        159110
#        192072
#        212756
#        228581
#        241020
#        257921
#        277026
#
# Disc length: 3894 seconds
#
# Revision: 0
# Processed by: cddbd v1.5.2PL0 Copyright (c) Steve Scherf et al.
# Submitted via: ExactAudioCopy v0.95b3
#
DISCID=dd0f3410
DTITLE=Tom Waits  - Orphans - Brawlers, Bawlers and Bastards - Disc 1
DYEAR=1900
DGENRE=
TTITLE0=Lie To Me
TTITLE1=Lowdown
TTITLE2=2:19
TTITLE3=Fish In The Jailhouse
TTITLE4=Bottom Of The World
TTITLE5=Lucinda
TTITLE6=Ain't Goin' Down To The Well
TTITLE7=Lord I've Been Changed
TTITLE8=Puttin' On The Dog
TTITLE9=Road To Peace
TTITLE10=All The Time
TTITLE11=The Return Of Jackie And Judy
TTITLE12=Walk Away
TTITLE13=Sea Of Love
TTITLE14=Buzz Fledderjohn
TTITLE15=Rains On Me
EXTD=
EXTT0=
EXTT1=
EXTT2=
EXTT3=
EXTT4=
EXTT5=
EXTT6=
EXTT7=
EXTT8=
EXTT9=
EXTT10=
EXTT11=
EXTT12=
EXTT13=
EXTT14=
EXTT15=
PLAYORDER=
